<svg width="80" height="121" viewBox="0 0 80 121" fill="none" xmlns="http://www.w3.org/2000/svg">
<path fill-rule="evenodd" clip-rule="evenodd" d="M16 60L0 77L39.5 120.5L80 78L63.5 60L46 60.5L40.5 66.5L34 60H16ZM25 70L39.5 86L55 70.5L61.5 77.5L40 100L19 76.5L25 70Z" fill="white"/>
<path d="M0 42.5L40.5 0L75.5 39L66 48.5L40.5 20.5L19 42.5L39.5 66L45 60.5L35 49L45 39L64 60.5L39.5 86L0 42.5Z" fill="url(#paint0_linear_3_255)"/>
<defs>
<linearGradient id="paint0_linear_3_255" x1="5.09625" y1="19.3303" x2="75.3729" y2="34.0797" gradientUnits="userSpaceOnUse">
<stop stop-color="#82EB7C"/>
<stop offset="0.3749" stop-color="#27B782"/>
<stop offset="0.375" stop-color="#26B682"/>
<stop offset="1" stop-color="#6BD2C9"/>
</linearGradient>
</defs>
</svg>
