<svg width="784" height="490" viewBox="0 0 784 490" fill="none" xmlns="http://www.w3.org/2000/svg">
<rect width="784" height="490" rx="20" fill="#FDFDFD"/>
<path fill-rule="evenodd" clip-rule="evenodd" d="M367.5 200L351.5 217L391 260.5L431.5 218L415 200L397.5 200.5L392 206.5L385.5 200H367.5ZM376.5 210L391 226L406.5 210.5L413 217.5L391.5 240L370.5 216.5L376.5 210Z" fill="#6D6D6D"/>
<path d="M351.5 182.5L392 140L427 179L417.5 188.5L392 160.5L370.5 182.5L391.5 206L396.5 200.5L386.5 189L396.5 179L416 201L391 226L351.5 182.5Z" fill="url(#paint0_linear_2_97)"/>
<path d="M168.722 276.292H226.3C227.768 276.292 229.039 276.829 230.113 277.903C231.152 278.942 231.671 280.213 231.671 281.717C231.671 283.221 231.152 284.492 230.113 285.53C229.039 286.569 227.768 287.088 226.3 287.088H204.063V344.075C204.063 345.579 203.544 346.868 202.506 347.942C201.467 348.981 200.196 349.5 198.692 349.5C197.188 349.5 195.917 348.981 194.879 347.942C193.805 346.868 193.268 345.579 193.268 344.075V287.088H168.722C167.218 287.088 165.929 286.569 164.854 285.53C163.816 284.492 163.297 283.221 163.297 281.717C163.297 280.213 163.816 278.942 164.854 277.903C165.929 276.829 167.218 276.292 168.722 276.292ZM308.692 297.293C308.692 304.132 305.989 309.664 300.582 313.89C305.989 318.759 308.692 324.829 308.692 332.098V344.075C308.692 345.579 308.173 346.868 307.135 347.942C306.061 348.981 304.789 349.5 303.321 349.5C301.817 349.5 300.546 348.981 299.508 347.942C298.434 346.868 297.896 345.579 297.896 344.075V332.098C297.896 328.302 296.554 325.062 293.868 322.376C291.183 319.655 287.924 318.294 284.093 318.294H245.743C244.239 318.294 242.95 317.775 241.876 316.736C240.838 315.662 240.318 314.391 240.318 312.923C240.318 311.419 240.838 310.148 241.876 309.109C242.95 308.035 244.239 307.498 245.743 307.498H287.691C290.52 307.498 292.919 306.513 294.889 304.544C296.894 302.539 297.896 300.122 297.896 297.293C297.896 294.5 296.894 292.101 294.889 290.096C292.919 288.09 290.52 287.088 287.691 287.088H245.743C244.239 287.088 242.95 286.569 241.876 285.53C240.838 284.492 240.318 283.221 240.318 281.717C240.318 280.213 240.838 278.942 241.876 277.903C242.95 276.829 244.239 276.292 245.743 276.292H287.691C293.492 276.292 298.451 278.351 302.569 282.469C306.651 286.587 308.692 291.528 308.692 297.293ZM332.164 334.676C334.885 337.361 338.144 338.704 341.939 338.704C343.443 338.704 344.715 339.223 345.753 340.262C346.791 341.336 347.311 342.607 347.311 344.075C347.311 345.579 346.791 346.868 345.753 347.942C344.715 348.981 343.443 349.5 341.939 349.5C335.172 349.5 329.371 347.101 324.537 342.303C319.739 337.469 317.34 331.668 317.34 324.9V281.717C317.34 280.213 317.859 278.942 318.897 277.903C319.972 276.829 321.261 276.292 322.765 276.292C324.233 276.292 325.504 276.829 326.578 277.903C327.617 278.942 328.136 280.213 328.136 281.717V324.9C328.136 328.696 329.479 331.954 332.164 334.676ZM376.529 277.903C377.568 276.829 378.839 276.292 380.343 276.292C381.811 276.292 383.082 276.829 384.156 277.903C385.195 278.942 385.714 280.213 385.714 281.717V324.9C385.714 331.668 383.315 337.469 378.517 342.303C373.718 347.101 367.918 349.5 361.114 349.5C359.646 349.5 358.375 348.981 357.301 347.942C356.262 346.868 355.743 345.579 355.743 344.075C355.743 342.607 356.262 341.336 357.301 340.262C358.375 339.223 359.646 338.704 361.114 338.704C364.946 338.704 368.204 337.361 370.89 334.676C373.575 331.954 374.918 328.696 374.918 324.9V281.717C374.918 280.213 375.455 278.942 376.529 277.903ZM399.786 338.704H457.364C458.832 338.704 460.104 339.223 461.178 340.262C462.216 341.336 462.735 342.607 462.735 344.075C462.735 345.579 462.216 346.868 461.178 347.942C460.104 348.981 458.832 349.5 457.364 349.5H399.786C398.282 349.5 396.993 348.981 395.919 347.942C394.881 346.868 394.361 345.579 394.361 344.075C394.361 342.607 394.881 341.336 395.919 340.262C396.993 339.223 398.282 338.704 399.786 338.704ZM457.364 287.088H399.786C398.282 287.088 396.993 286.569 395.919 285.53C394.881 284.492 394.361 283.221 394.361 281.717C394.361 280.213 394.881 278.942 395.919 277.903C396.993 276.829 398.282 276.292 399.786 276.292H457.364C458.832 276.292 460.104 276.829 461.178 277.903C462.216 278.942 462.735 280.213 462.735 281.717C462.735 283.221 462.216 284.492 461.178 285.53C460.104 286.569 458.832 287.088 457.364 287.088ZM399.786 307.498H457.364C458.832 307.498 460.104 308.035 461.178 309.109C462.216 310.148 462.735 311.419 462.735 312.923C462.735 314.391 462.216 315.662 461.178 316.736C460.104 317.775 458.832 318.294 457.364 318.294H399.786C398.282 318.294 396.993 317.775 395.919 316.736C394.881 315.662 394.361 314.391 394.361 312.923C394.361 311.419 394.881 310.148 395.919 309.109C396.993 308.035 398.282 307.498 399.786 307.498Z" fill="#6D6D6D"/>
<path d="M522.598 313.929C522.598 314.828 522.238 315.636 521.52 316.355C520.891 317.073 520.082 317.433 519.094 317.433H494.168C493.18 317.433 492.327 317.792 491.608 318.511C490.889 319.229 490.53 320.082 490.53 321.071V329.289C490.53 330.278 490.889 331.131 491.608 331.849C492.327 332.478 493.18 332.793 494.168 332.793H535.128C536.116 332.793 536.925 333.152 537.553 333.871C538.272 334.589 538.631 335.442 538.631 336.431V345.997C538.631 346.895 538.272 347.704 537.553 348.422C536.925 349.141 536.116 349.5 535.128 349.5H477.461C476.473 349.5 475.619 349.186 474.901 348.557C474.182 347.838 473.823 346.985 473.823 345.997V320.397C473.823 319.409 474.182 318.555 474.901 317.837C475.619 317.118 476.473 316.759 477.461 316.759H486.353C487.341 316.759 488.15 316.445 488.779 315.816C489.497 315.097 489.856 314.244 489.856 313.256V304.363C489.856 303.375 490.216 302.522 490.934 301.803C491.653 301.085 492.506 300.725 493.494 300.725H518.421C519.409 300.725 520.217 300.366 520.846 299.647C521.565 298.929 521.924 298.12 521.924 297.222V289.003C521.924 288.015 521.565 287.162 520.846 286.443C520.217 285.725 519.409 285.365 518.421 285.365H477.461C476.473 285.365 475.619 285.051 474.901 284.422C474.182 283.704 473.823 282.85 473.823 281.862V272.296C473.823 271.308 474.182 270.454 474.901 269.736C475.619 269.017 476.473 268.658 477.461 268.658H535.128C536.116 268.658 536.925 269.017 537.553 269.736C538.272 270.454 538.631 271.308 538.631 272.296V297.896C538.631 298.794 538.272 299.602 537.553 300.321C536.925 301.04 536.116 301.399 535.128 301.399H526.235C525.247 301.399 524.394 301.758 523.675 302.477C522.957 303.195 522.598 304.049 522.598 305.037V313.929ZM596.671 284.692C597.659 284.692 598.467 284.332 599.096 283.614C599.815 282.895 600.174 282.087 600.174 281.188V272.296C600.174 271.308 600.533 270.454 601.252 269.736C601.97 269.017 602.824 268.658 603.812 268.658H613.378C614.366 268.658 615.175 269.017 615.803 269.736C616.522 270.454 616.881 271.308 616.881 272.296V281.862C616.881 282.76 616.522 283.569 615.803 284.287C615.175 285.006 614.366 285.365 613.378 285.365H604.485C603.497 285.365 602.644 285.725 601.925 286.443C601.207 287.162 600.848 288.015 600.848 289.003V297.896C600.848 298.794 600.488 299.602 599.77 300.321C599.141 301.04 598.332 301.399 597.344 301.399H588.452C587.464 301.399 586.61 301.758 585.892 302.477C585.173 303.195 584.814 304.049 584.814 305.037V313.256C584.814 314.244 585.173 315.097 585.892 315.816C586.61 316.445 587.464 316.759 588.452 316.759H597.344C598.332 316.759 599.141 317.118 599.77 317.837C600.488 318.555 600.848 319.409 600.848 320.397V329.289C600.848 330.278 601.207 331.131 601.925 331.849C602.644 332.478 603.497 332.793 604.485 332.793H613.378C614.366 332.793 615.175 333.152 615.803 333.871C616.522 334.589 616.881 335.442 616.881 336.431V345.997C616.881 346.895 616.522 347.704 615.803 348.422C615.175 349.141 614.366 349.5 613.378 349.5H603.812C602.824 349.5 601.97 349.186 601.252 348.557C600.533 347.838 600.174 346.985 600.174 345.997V336.969C600.174 335.981 599.815 335.173 599.096 334.544C598.467 333.826 597.659 333.466 596.671 333.466H587.778C586.79 333.466 585.937 333.152 585.218 332.523C584.499 331.805 584.14 330.951 584.14 329.963V321.071C584.14 320.082 583.781 319.229 583.062 318.511C582.433 317.792 581.625 317.433 580.637 317.433H572.418C571.43 317.433 570.577 317.792 569.858 318.511C569.139 319.229 568.78 320.082 568.78 321.071V345.997C568.78 346.895 568.421 347.704 567.702 348.422C567.073 349.141 566.265 349.5 565.277 349.5H555.711C554.723 349.5 553.869 349.186 553.151 348.557C552.432 347.838 552.073 346.985 552.073 345.997V272.296C552.073 271.308 552.432 270.454 553.151 269.736C553.869 269.017 554.723 268.658 555.711 268.658H565.277C566.265 268.658 567.073 269.017 567.702 269.736C568.421 270.454 568.78 271.308 568.78 272.296V297.222C568.78 298.21 569.139 299.064 569.858 299.782C570.577 300.411 571.43 300.725 572.418 300.725H580.637C581.625 300.725 582.433 300.366 583.062 299.647C583.781 298.929 584.14 298.12 584.14 297.222V288.329C584.14 287.341 584.499 286.488 585.218 285.769C585.937 285.051 586.79 284.692 587.778 284.692H596.671Z" fill="url(#paint1_linear_2_97)"/>
<defs>
<linearGradient id="paint0_linear_2_97" x1="356.596" y1="159.33" x2="426.873" y2="174.08" gradientUnits="userSpaceOnUse">
<stop stop-color="#82EB7C"/>
<stop offset="0.3749" stop-color="#27B782"/>
<stop offset="0.375" stop-color="#26B682"/>
<stop offset="1" stop-color="#6BD2C9"/>
</linearGradient>
<linearGradient id="paint1_linear_2_97" x1="469.5" y1="295.325" x2="510.116" y2="384.892" gradientUnits="userSpaceOnUse">
<stop stop-color="#82EB7C"/>
<stop offset="0.375" stop-color="#26B682"/>
<stop offset="1" stop-color="#6BD2C9"/>
</linearGradient>
</defs>
</svg>
