<svg width="454" height="82" viewBox="0 0 454 82" fill="none" xmlns="http://www.w3.org/2000/svg">
<path d="M5.72168 8.29199H63.2998C64.7679 8.29199 66.0391 8.8291 67.1133 9.90332C68.1517 10.9417 68.6709 12.2129 68.6709 13.7168C68.6709 15.2207 68.1517 16.4919 67.1133 17.5303C66.0391 18.5687 64.7679 19.0879 63.2998 19.0879H41.0635V76.0752C41.0635 77.5791 40.5443 78.8682 39.5059 79.9424C38.4674 80.9808 37.1963 81.5 35.6924 81.5C34.1885 81.5 32.9173 80.9808 31.8789 79.9424C30.8047 78.8682 30.2676 77.5791 30.2676 76.0752V19.0879H5.72168C4.21777 19.0879 2.92871 18.5687 1.85449 17.5303C0.816081 16.4919 0.296875 15.2207 0.296875 13.7168C0.296875 12.2129 0.816081 10.9417 1.85449 9.90332C2.92871 8.8291 4.21777 8.29199 5.72168 8.29199ZM145.692 29.293C145.692 36.1322 142.989 41.6644 137.582 45.8896C142.989 50.7594 145.692 56.8288 145.692 64.0977V76.0752C145.692 77.5791 145.173 78.8682 144.135 79.9424C143.061 80.9808 141.789 81.5 140.321 81.5C138.817 81.5 137.546 80.9808 136.508 79.9424C135.434 78.8682 134.896 77.5791 134.896 76.0752V64.0977C134.896 60.3021 133.554 57.0615 130.868 54.376C128.183 51.6546 124.924 50.2939 121.093 50.2939H82.7432C81.2393 50.2939 79.9502 49.7747 78.876 48.7363C77.8376 47.6621 77.3184 46.391 77.3184 44.9229C77.3184 43.4189 77.8376 42.1478 78.876 41.1094C79.9502 40.0352 81.2393 39.498 82.7432 39.498H124.691C127.52 39.498 129.919 38.5133 131.889 36.5439C133.894 34.5387 134.896 32.1217 134.896 29.293C134.896 26.5 133.894 24.1009 131.889 22.0957C129.919 20.0905 127.52 19.0879 124.691 19.0879H82.7432C81.2393 19.0879 79.9502 18.5687 78.876 17.5303C77.8376 16.4919 77.3184 15.2207 77.3184 13.7168C77.3184 12.2129 77.8376 10.9417 78.876 9.90332C79.9502 8.8291 81.2393 8.29199 82.7432 8.29199H124.691C130.492 8.29199 135.451 10.3509 139.569 14.4688C143.651 18.5866 145.692 23.528 145.692 29.293ZM169.164 66.6758C171.885 69.3613 175.144 70.7041 178.939 70.7041C180.443 70.7041 181.715 71.2233 182.753 72.2617C183.791 73.3359 184.311 74.6071 184.311 76.0752C184.311 77.5791 183.791 78.8682 182.753 79.9424C181.715 80.9808 180.443 81.5 178.939 81.5C172.172 81.5 166.371 79.1009 161.537 74.3027C156.739 69.4688 154.34 63.668 154.34 56.9004V13.7168C154.34 12.2129 154.859 10.9417 155.897 9.90332C156.972 8.8291 158.261 8.29199 159.765 8.29199C161.233 8.29199 162.504 8.8291 163.578 9.90332C164.617 10.9417 165.136 12.2129 165.136 13.7168V56.9004C165.136 60.696 166.479 63.9544 169.164 66.6758ZM213.529 9.90332C214.568 8.8291 215.839 8.29199 217.343 8.29199C218.811 8.29199 220.082 8.8291 221.156 9.90332C222.195 10.9417 222.714 12.2129 222.714 13.7168V56.9004C222.714 63.668 220.315 69.4688 215.517 74.3027C210.718 79.1009 204.918 81.5 198.114 81.5C196.646 81.5 195.375 80.9808 194.301 79.9424C193.262 78.8682 192.743 77.5791 192.743 76.0752C192.743 74.6071 193.262 73.3359 194.301 72.2617C195.375 71.2233 196.646 70.7041 198.114 70.7041C201.946 70.7041 205.204 69.3613 207.89 66.6758C210.575 63.9544 211.918 60.696 211.918 56.9004V13.7168C211.918 12.2129 212.455 10.9417 213.529 9.90332ZM236.786 70.7041H294.364C295.832 70.7041 297.104 71.2233 298.178 72.2617C299.216 73.3359 299.735 74.6071 299.735 76.0752C299.735 77.5791 299.216 78.8682 298.178 79.9424C297.104 80.9808 295.832 81.5 294.364 81.5H236.786C235.282 81.5 233.993 80.9808 232.919 79.9424C231.881 78.8682 231.361 77.5791 231.361 76.0752C231.361 74.6071 231.881 73.3359 232.919 72.2617C233.993 71.2233 235.282 70.7041 236.786 70.7041ZM294.364 19.0879H236.786C235.282 19.0879 233.993 18.5687 232.919 17.5303C231.881 16.4919 231.361 15.2207 231.361 13.7168C231.361 12.2129 231.881 10.9417 232.919 9.90332C233.993 8.8291 235.282 8.29199 236.786 8.29199H294.364C295.832 8.29199 297.104 8.8291 298.178 9.90332C299.216 10.9417 299.735 12.2129 299.735 13.7168C299.735 15.2207 299.216 16.4919 298.178 17.5303C297.104 18.5687 295.832 19.0879 294.364 19.0879ZM236.786 39.498H294.364C295.832 39.498 297.104 40.0352 298.178 41.1094C299.216 42.1478 299.735 43.4189 299.735 44.9229C299.735 46.391 299.216 47.6621 298.178 48.7363C297.104 49.7747 295.832 50.2939 294.364 50.2939H236.786C235.282 50.2939 233.993 49.7747 232.919 48.7363C231.881 47.6621 231.361 46.391 231.361 44.9229C231.361 43.4189 231.881 42.1478 232.919 41.1094C233.993 40.0352 235.282 39.498 236.786 39.498Z" fill="#6D6D6D"/>
<path d="M359.598 45.9295C359.598 46.8277 359.238 47.6361 358.52 48.3547C357.891 49.0733 357.082 49.4326 356.094 49.4326H331.168C330.18 49.4326 329.327 49.7919 328.608 50.5105C327.889 51.2291 327.53 52.0825 327.53 53.0705V61.2895C327.53 62.2775 327.889 63.1309 328.608 63.8495C329.327 64.4782 330.18 64.7926 331.168 64.7926H372.128C373.116 64.7926 373.925 65.1519 374.553 65.8705C375.272 66.5891 375.631 67.4425 375.631 68.4305V77.9968C375.631 78.8951 375.272 79.7035 374.553 80.4221C373.925 81.1407 373.116 81.5 372.128 81.5H314.461C313.473 81.5 312.619 81.1856 311.901 80.5568C311.182 79.8382 310.823 78.9849 310.823 77.9968V52.3968C310.823 51.4088 311.182 50.5554 311.901 49.8368C312.619 49.1182 313.473 48.7589 314.461 48.7589H323.353C324.341 48.7589 325.15 48.4446 325.779 47.8158C326.497 47.0972 326.856 46.2439 326.856 45.2558V36.3632C326.856 35.3751 327.216 34.5218 327.934 33.8032C328.653 33.0846 329.506 32.7253 330.494 32.7253H355.421C356.409 32.7253 357.217 32.366 357.846 31.6474C358.565 30.9288 358.924 30.1204 358.924 29.2221V21.0032C358.924 20.0151 358.565 19.1618 357.846 18.4432C357.217 17.7246 356.409 17.3653 355.421 17.3653H314.461C313.473 17.3653 312.619 17.0509 311.901 16.4221C311.182 15.7035 310.823 14.8502 310.823 13.8621V4.29579C310.823 3.30772 311.182 2.45439 311.901 1.73579C312.619 1.0172 313.473 0.657898 314.461 0.657898H372.128C373.116 0.657898 373.925 1.0172 374.553 1.73579C375.272 2.45439 375.631 3.30772 375.631 4.29579V29.8958C375.631 30.794 375.272 31.6025 374.553 32.3211C373.925 33.0397 373.116 33.3989 372.128 33.3989H363.235C362.247 33.3989 361.394 33.7582 360.675 34.4768C359.957 35.1954 359.598 36.0488 359.598 37.0368V45.9295ZM433.671 16.6916C434.659 16.6916 435.467 16.3323 436.096 15.6137C436.815 14.8951 437.174 14.0867 437.174 13.1884V4.29579C437.174 3.30772 437.533 2.45439 438.252 1.73579C438.97 1.0172 439.824 0.657898 440.812 0.657898H450.378C451.366 0.657898 452.175 1.0172 452.803 1.73579C453.522 2.45439 453.881 3.30772 453.881 4.29579V13.8621C453.881 14.7604 453.522 15.5688 452.803 16.2874C452.175 17.006 451.366 17.3653 450.378 17.3653H441.485C440.497 17.3653 439.644 17.7246 438.925 18.4432C438.207 19.1618 437.848 20.0151 437.848 21.0032V29.8958C437.848 30.794 437.488 31.6025 436.77 32.3211C436.141 33.0397 435.332 33.3989 434.344 33.3989H425.452C424.464 33.3989 423.61 33.7582 422.892 34.4768C422.173 35.1954 421.814 36.0488 421.814 37.0368V45.2558C421.814 46.2439 422.173 47.0972 422.892 47.8158C423.61 48.4446 424.464 48.7589 425.452 48.7589H434.344C435.332 48.7589 436.141 49.1182 436.77 49.8368C437.488 50.5554 437.848 51.4088 437.848 52.3968V61.2895C437.848 62.2775 438.207 63.1309 438.925 63.8495C439.644 64.4782 440.497 64.7926 441.485 64.7926H450.378C451.366 64.7926 452.175 65.1519 452.803 65.8705C453.522 66.5891 453.881 67.4425 453.881 68.4305V77.9968C453.881 78.8951 453.522 79.7035 452.803 80.4221C452.175 81.1407 451.366 81.5 450.378 81.5H440.812C439.824 81.5 438.97 81.1856 438.252 80.5568C437.533 79.8382 437.174 78.9849 437.174 77.9968V68.9695C437.174 67.9814 436.815 67.173 436.096 66.5442C435.467 65.8256 434.659 65.4663 433.671 65.4663H424.778C423.79 65.4663 422.937 65.1519 422.218 64.5232C421.499 63.8046 421.14 62.9512 421.14 61.9632V53.0705C421.14 52.0825 420.781 51.2291 420.062 50.5105C419.433 49.7919 418.625 49.4326 417.637 49.4326H409.418C408.43 49.4326 407.577 49.7919 406.858 50.5105C406.139 51.2291 405.78 52.0825 405.78 53.0705V77.9968C405.78 78.8951 405.421 79.7035 404.702 80.4221C404.073 81.1407 403.265 81.5 402.277 81.5H392.711C391.723 81.5 390.869 81.1856 390.151 80.5568C389.432 79.8382 389.073 78.9849 389.073 77.9968V4.29579C389.073 3.30772 389.432 2.45439 390.151 1.73579C390.869 1.0172 391.723 0.657898 392.711 0.657898H402.277C403.265 0.657898 404.073 1.0172 404.702 1.73579C405.421 2.45439 405.78 3.30772 405.78 4.29579V29.2221C405.78 30.2102 406.139 31.0635 406.858 31.7821C407.577 32.4109 408.43 32.7253 409.418 32.7253H417.637C418.625 32.7253 419.433 32.366 420.062 31.6474C420.781 30.9288 421.14 30.1204 421.14 29.2221V20.3295C421.14 19.3414 421.499 18.4881 422.218 17.7695C422.937 17.0509 423.79 16.6916 424.778 16.6916H433.671Z" fill="url(#paint0_linear_2_104)"/>
<defs>
<linearGradient id="paint0_linear_2_104" x1="306.5" y1="27.3247" x2="347.116" y2="116.892" gradientUnits="userSpaceOnUse">
<stop stop-color="#82EB7C"/>
<stop offset="0.375" stop-color="#26B682"/>
<stop offset="1" stop-color="#6BD2C9"/>
</linearGradient>
</defs>
</svg>
