<svg width="454" height="82" viewBox="0 0 454 82" fill="none" xmlns="http://www.w3.org/2000/svg">
<path d="M5.72168 8.54199H63.2998C64.7679 8.54199 66.0391 9.0791 67.1133 10.1533C68.1517 11.1917 68.6709 12.4629 68.6709 13.9668C68.6709 15.4707 68.1517 16.7419 67.1133 17.7803C66.0391 18.8187 64.7679 19.3379 63.2998 19.3379H41.0635V76.3252C41.0635 77.8291 40.5443 79.1182 39.5059 80.1924C38.4674 81.2308 37.1963 81.75 35.6924 81.75C34.1885 81.75 32.9173 81.2308 31.8789 80.1924C30.8047 79.1182 30.2676 77.8291 30.2676 76.3252V19.3379H5.72168C4.21777 19.3379 2.92871 18.8187 1.85449 17.7803C0.816081 16.7419 0.296875 15.4707 0.296875 13.9668C0.296875 12.4629 0.816081 11.1917 1.85449 10.1533C2.92871 9.0791 4.21777 8.54199 5.72168 8.54199ZM145.692 29.543C145.692 36.3822 142.989 41.9144 137.582 46.1396C142.989 51.0094 145.692 57.0788 145.692 64.3477V76.3252C145.692 77.8291 145.173 79.1182 144.135 80.1924C143.061 81.2308 141.789 81.75 140.321 81.75C138.817 81.75 137.546 81.2308 136.508 80.1924C135.434 79.1182 134.896 77.8291 134.896 76.3252V64.3477C134.896 60.5521 133.554 57.3115 130.868 54.626C128.183 51.9046 124.924 50.5439 121.093 50.5439H82.7432C81.2393 50.5439 79.9502 50.0247 78.876 48.9863C77.8376 47.9121 77.3184 46.641 77.3184 45.1729C77.3184 43.6689 77.8376 42.3978 78.876 41.3594C79.9502 40.2852 81.2393 39.748 82.7432 39.748H124.691C127.52 39.748 129.919 38.7633 131.889 36.7939C133.894 34.7887 134.896 32.3717 134.896 29.543C134.896 26.75 133.894 24.3509 131.889 22.3457C129.919 20.3405 127.52 19.3379 124.691 19.3379H82.7432C81.2393 19.3379 79.9502 18.8187 78.876 17.7803C77.8376 16.7419 77.3184 15.4707 77.3184 13.9668C77.3184 12.4629 77.8376 11.1917 78.876 10.1533C79.9502 9.0791 81.2393 8.54199 82.7432 8.54199H124.691C130.492 8.54199 135.451 10.6009 139.569 14.7188C143.651 18.8366 145.692 23.778 145.692 29.543ZM169.164 66.9258C171.885 69.6113 175.144 70.9541 178.939 70.9541C180.443 70.9541 181.715 71.4733 182.753 72.5117C183.791 73.5859 184.311 74.8571 184.311 76.3252C184.311 77.8291 183.791 79.1182 182.753 80.1924C181.715 81.2308 180.443 81.75 178.939 81.75C172.172 81.75 166.371 79.3509 161.537 74.5527C156.739 69.7188 154.34 63.918 154.34 57.1504V13.9668C154.34 12.4629 154.859 11.1917 155.897 10.1533C156.972 9.0791 158.261 8.54199 159.765 8.54199C161.233 8.54199 162.504 9.0791 163.578 10.1533C164.617 11.1917 165.136 12.4629 165.136 13.9668V57.1504C165.136 60.946 166.479 64.2044 169.164 66.9258ZM213.529 10.1533C214.568 9.0791 215.839 8.54199 217.343 8.54199C218.811 8.54199 220.082 9.0791 221.156 10.1533C222.195 11.1917 222.714 12.4629 222.714 13.9668V57.1504C222.714 63.918 220.315 69.7188 215.517 74.5527C210.718 79.3509 204.918 81.75 198.114 81.75C196.646 81.75 195.375 81.2308 194.301 80.1924C193.262 79.1182 192.743 77.8291 192.743 76.3252C192.743 74.8571 193.262 73.5859 194.301 72.5117C195.375 71.4733 196.646 70.9541 198.114 70.9541C201.946 70.9541 205.204 69.6113 207.89 66.9258C210.575 64.2044 211.918 60.946 211.918 57.1504V13.9668C211.918 12.4629 212.455 11.1917 213.529 10.1533ZM236.786 70.9541H294.364C295.832 70.9541 297.104 71.4733 298.178 72.5117C299.216 73.5859 299.735 74.8571 299.735 76.3252C299.735 77.8291 299.216 79.1182 298.178 80.1924C297.104 81.2308 295.832 81.75 294.364 81.75H236.786C235.282 81.75 233.993 81.2308 232.919 80.1924C231.881 79.1182 231.361 77.8291 231.361 76.3252C231.361 74.8571 231.881 73.5859 232.919 72.5117C233.993 71.4733 235.282 70.9541 236.786 70.9541ZM294.364 19.3379H236.786C235.282 19.3379 233.993 18.8187 232.919 17.7803C231.881 16.7419 231.361 15.4707 231.361 13.9668C231.361 12.4629 231.881 11.1917 232.919 10.1533C233.993 9.0791 235.282 8.54199 236.786 8.54199H294.364C295.832 8.54199 297.104 9.0791 298.178 10.1533C299.216 11.1917 299.735 12.4629 299.735 13.9668C299.735 15.4707 299.216 16.7419 298.178 17.7803C297.104 18.8187 295.832 19.3379 294.364 19.3379ZM236.786 39.748H294.364C295.832 39.748 297.104 40.2852 298.178 41.3594C299.216 42.3978 299.735 43.6689 299.735 45.1729C299.735 46.641 299.216 47.9121 298.178 48.9863C297.104 50.0247 295.832 50.5439 294.364 50.5439H236.786C235.282 50.5439 233.993 50.0247 232.919 48.9863C231.881 47.9121 231.361 46.641 231.361 45.1729C231.361 43.6689 231.881 42.3978 232.919 41.3594C233.993 40.2852 235.282 39.748 236.786 39.748Z" fill="white"/>
<path d="M359.598 46.1795C359.598 47.0777 359.238 47.8861 358.52 48.6047C357.891 49.3233 357.082 49.6826 356.094 49.6826H331.168C330.18 49.6826 329.327 50.0419 328.608 50.7605C327.889 51.4791 327.53 52.3325 327.53 53.3205V61.5395C327.53 62.5275 327.889 63.3809 328.608 64.0995C329.327 64.7282 330.18 65.0426 331.168 65.0426H372.128C373.116 65.0426 373.925 65.4019 374.553 66.1205C375.272 66.8391 375.631 67.6925 375.631 68.6805V78.2468C375.631 79.1451 375.272 79.9535 374.553 80.6721C373.925 81.3907 373.116 81.75 372.128 81.75H314.461C313.473 81.75 312.619 81.4356 311.901 80.8068C311.182 80.0882 310.823 79.2349 310.823 78.2468V52.6468C310.823 51.6588 311.182 50.8054 311.901 50.0868C312.619 49.3682 313.473 49.0089 314.461 49.0089H323.353C324.341 49.0089 325.15 48.6946 325.779 48.0658C326.497 47.3472 326.856 46.4939 326.856 45.5058V36.6132C326.856 35.6251 327.216 34.7718 327.934 34.0532C328.653 33.3346 329.506 32.9753 330.494 32.9753H355.421C356.409 32.9753 357.217 32.616 357.846 31.8974C358.565 31.1788 358.924 30.3704 358.924 29.4721V21.2532C358.924 20.2651 358.565 19.4118 357.846 18.6932C357.217 17.9746 356.409 17.6153 355.421 17.6153H314.461C313.473 17.6153 312.619 17.3009 311.901 16.6721C311.182 15.9535 310.823 15.1002 310.823 14.1121V4.54579C310.823 3.55772 311.182 2.70439 311.901 1.98579C312.619 1.2672 313.473 0.907898 314.461 0.907898H372.128C373.116 0.907898 373.925 1.2672 374.553 1.98579C375.272 2.70439 375.631 3.55772 375.631 4.54579V30.1458C375.631 31.044 375.272 31.8525 374.553 32.5711C373.925 33.2897 373.116 33.6489 372.128 33.6489H363.235C362.247 33.6489 361.394 34.0082 360.675 34.7268C359.957 35.4454 359.598 36.2988 359.598 37.2868V46.1795ZM433.671 16.9416C434.659 16.9416 435.467 16.5823 436.096 15.8637C436.815 15.1451 437.174 14.3367 437.174 13.4384V4.54579C437.174 3.55772 437.533 2.70439 438.252 1.98579C438.97 1.2672 439.824 0.907898 440.812 0.907898H450.378C451.366 0.907898 452.175 1.2672 452.803 1.98579C453.522 2.70439 453.881 3.55772 453.881 4.54579V14.1121C453.881 15.0104 453.522 15.8188 452.803 16.5374C452.175 17.256 451.366 17.6153 450.378 17.6153H441.485C440.497 17.6153 439.644 17.9746 438.925 18.6932C438.207 19.4118 437.848 20.2651 437.848 21.2532V30.1458C437.848 31.044 437.488 31.8525 436.77 32.5711C436.141 33.2897 435.332 33.6489 434.344 33.6489H425.452C424.464 33.6489 423.61 34.0082 422.892 34.7268C422.173 35.4454 421.814 36.2988 421.814 37.2868V45.5058C421.814 46.4939 422.173 47.3472 422.892 48.0658C423.61 48.6946 424.464 49.0089 425.452 49.0089H434.344C435.332 49.0089 436.141 49.3682 436.77 50.0868C437.488 50.8054 437.848 51.6588 437.848 52.6468V61.5395C437.848 62.5275 438.207 63.3809 438.925 64.0995C439.644 64.7282 440.497 65.0426 441.485 65.0426H450.378C451.366 65.0426 452.175 65.4019 452.803 66.1205C453.522 66.8391 453.881 67.6925 453.881 68.6805V78.2468C453.881 79.1451 453.522 79.9535 452.803 80.6721C452.175 81.3907 451.366 81.75 450.378 81.75H440.812C439.824 81.75 438.97 81.4356 438.252 80.8068C437.533 80.0882 437.174 79.2349 437.174 78.2468V69.2195C437.174 68.2314 436.815 67.423 436.096 66.7942C435.467 66.0756 434.659 65.7163 433.671 65.7163H424.778C423.79 65.7163 422.937 65.4019 422.218 64.7732C421.499 64.0546 421.14 63.2012 421.14 62.2132V53.3205C421.14 52.3325 420.781 51.4791 420.062 50.7605C419.433 50.0419 418.625 49.6826 417.637 49.6826H409.418C408.43 49.6826 407.577 50.0419 406.858 50.7605C406.139 51.4791 405.78 52.3325 405.78 53.3205V78.2468C405.78 79.1451 405.421 79.9535 404.702 80.6721C404.073 81.3907 403.265 81.75 402.277 81.75H392.711C391.723 81.75 390.869 81.4356 390.151 80.8068C389.432 80.0882 389.073 79.2349 389.073 78.2468V4.54579C389.073 3.55772 389.432 2.70439 390.151 1.98579C390.869 1.2672 391.723 0.907898 392.711 0.907898H402.277C403.265 0.907898 404.073 1.2672 404.702 1.98579C405.421 2.70439 405.78 3.55772 405.78 4.54579V29.4721C405.78 30.4602 406.139 31.3135 406.858 32.0321C407.577 32.6609 408.43 32.9753 409.418 32.9753H417.637C418.625 32.9753 419.433 32.616 420.062 31.8974C420.781 31.1788 421.14 30.3704 421.14 29.4721V20.5795C421.14 19.5914 421.499 18.7381 422.218 18.0195C422.937 17.3009 423.79 16.9416 424.778 16.9416H433.671Z" fill="url(#paint0_linear_3_260)"/>
<defs>
<linearGradient id="paint0_linear_3_260" x1="306.5" y1="27.5747" x2="347.116" y2="117.142" gradientUnits="userSpaceOnUse">
<stop stop-color="#82EB7C"/>
<stop offset="0.375" stop-color="#26B682"/>
<stop offset="1" stop-color="#6BD2C9"/>
</linearGradient>
</defs>
</svg>
