<svg width="109" height="25" viewBox="0 0 109 25" fill="none" xmlns="http://www.w3.org/2000/svg">
<path fill-rule="evenodd" clip-rule="evenodd" d="M4.51448 12.2263L1.32776 15.6121L9.19498 24.276L17.2614 15.8113L13.9751 12.2263L10.4896 12.3258L9.39415 13.5209L8.09954 12.2263H4.51448ZM6.3071 14.218L9.19507 17.4047L12.2822 14.3176L13.5768 15.7118L9.29465 20.1931L5.11208 15.5126L6.3071 14.218Z" fill="#FDFDFD"/>
<path d="M1.32776 8.74079L9.39415 0.276062L16.3651 8.0437L14.473 9.93581L9.39415 4.35905L5.11199 8.74079L9.29456 13.4213L10.2904 12.3259L8.29871 10.0354L10.2904 8.0437L14.1742 12.4254L9.19498 17.4047L1.32776 8.74079Z" fill="url(#paint0_linear_3707_2537)"/>
<path d="M23.0289 6.46552H33.4977C33.7646 6.46552 33.9957 6.56317 34.191 6.75848C34.3798 6.94729 34.4742 7.17841 34.4742 7.45184C34.4742 7.72528 34.3798 7.9564 34.191 8.1452C33.9957 8.334 33.7646 8.42841 33.4977 8.42841H29.4547V18.7897C29.4547 19.0632 29.3603 19.2975 29.1715 19.4929C28.9827 19.6817 28.7516 19.7761 28.4781 19.7761C28.2047 19.7761 27.9736 19.6817 27.7848 19.4929C27.5895 19.2975 27.4918 19.0632 27.4918 18.7897V8.42841H23.0289C22.7555 8.42841 22.5211 8.334 22.3258 8.1452C22.137 7.9564 22.0426 7.72528 22.0426 7.45184C22.0426 7.17841 22.137 6.94729 22.3258 6.75848C22.5211 6.56317 22.7555 6.46552 23.0289 6.46552ZM48.4781 10.2839C48.4781 11.5274 47.9866 12.5332 47.0035 13.3015C47.9866 14.1869 48.4781 15.2904 48.4781 16.612V18.7897C48.4781 19.0632 48.3837 19.2975 48.1949 19.4929C47.9996 19.6817 47.7685 19.7761 47.5016 19.7761C47.2281 19.7761 46.997 19.6817 46.8082 19.4929C46.6129 19.2975 46.5153 19.0632 46.5153 18.7897V16.612C46.5153 15.9219 46.2711 15.3327 45.7828 14.8444C45.2946 14.3496 44.7021 14.1022 44.0055 14.1022H37.0328C36.7594 14.1022 36.525 14.0078 36.3297 13.819C36.1409 13.6237 36.0465 13.3926 36.0465 13.1257C36.0465 12.8522 36.1409 12.6211 36.3297 12.4323C36.525 12.237 36.7594 12.1393 37.0328 12.1393H44.6598C45.1741 12.1393 45.6103 11.9603 45.9684 11.6022C46.333 11.2377 46.5153 10.7982 46.5153 10.2839C46.5153 9.77606 46.333 9.33986 45.9684 8.97528C45.6103 8.6107 45.1741 8.42841 44.6598 8.42841H37.0328C36.7594 8.42841 36.525 8.334 36.3297 8.1452C36.1409 7.9564 36.0465 7.72528 36.0465 7.45184C36.0465 7.17841 36.1409 6.94729 36.3297 6.75848C36.525 6.56317 36.7594 6.46552 37.0328 6.46552H44.6598C45.7145 6.46552 46.6162 6.83986 47.3649 7.58856C48.1071 8.33726 48.4781 9.2357 48.4781 10.2839ZM52.7457 17.0807C53.2405 17.569 53.833 17.8132 54.5231 17.8132C54.7965 17.8132 55.0276 17.9076 55.2164 18.0964C55.4052 18.2917 55.4996 18.5228 55.4996 18.7897C55.4996 19.0632 55.4052 19.2975 55.2164 19.4929C55.0276 19.6817 54.7965 19.7761 54.5231 19.7761C53.2926 19.7761 52.2379 19.3399 51.359 18.4675C50.4866 17.5886 50.0504 16.5339 50.0504 15.3034V7.45184C50.0504 7.17841 50.1448 6.94729 50.3336 6.75848C50.5289 6.56317 50.7633 6.46552 51.0367 6.46552C51.3037 6.46552 51.5348 6.56317 51.7301 6.75848C51.9189 6.94729 52.0133 7.17841 52.0133 7.45184V15.3034C52.0133 15.9935 52.2574 16.586 52.7457 17.0807ZM60.8121 6.75848C61.0009 6.56317 61.2321 6.46552 61.5055 6.46552C61.7724 6.46552 62.0035 6.56317 62.1989 6.75848C62.3877 6.94729 62.4821 7.17841 62.4821 7.45184V15.3034C62.4821 16.5339 62.0459 17.5886 61.1735 18.4675C60.3011 19.3399 59.2464 19.7761 58.0094 19.7761C57.7425 19.7761 57.5114 19.6817 57.316 19.4929C57.1272 19.2975 57.0328 19.0632 57.0328 18.7897C57.0328 18.5228 57.1272 18.2917 57.316 18.0964C57.5114 17.9076 57.7425 17.8132 58.0094 17.8132C58.706 17.8132 59.2985 17.569 59.7867 17.0807C60.275 16.586 60.5192 15.9935 60.5192 15.3034V7.45184C60.5192 7.17841 60.6168 6.94729 60.8121 6.75848ZM65.0406 17.8132H75.5094C75.7763 17.8132 76.0074 17.9076 76.2028 18.0964C76.3916 18.2917 76.486 18.5228 76.486 18.7897C76.486 19.0632 76.3916 19.2975 76.2028 19.4929C76.0074 19.6817 75.7763 19.7761 75.5094 19.7761H65.0406C64.7672 19.7761 64.5328 19.6817 64.3375 19.4929C64.1487 19.2975 64.0543 19.0632 64.0543 18.7897C64.0543 18.5228 64.1487 18.2917 64.3375 18.0964C64.5328 17.9076 64.7672 17.8132 65.0406 17.8132ZM75.5094 8.42841H65.0406C64.7672 8.42841 64.5328 8.334 64.3375 8.1452C64.1487 7.9564 64.0543 7.72528 64.0543 7.45184C64.0543 7.17841 64.1487 6.94729 64.3375 6.75848C64.5328 6.56317 64.7672 6.46552 65.0406 6.46552H75.5094C75.7763 6.46552 76.0074 6.56317 76.2028 6.75848C76.3916 6.94729 76.486 7.17841 76.486 7.45184C76.486 7.72528 76.3916 7.9564 76.2028 8.1452C76.0074 8.334 75.7763 8.42841 75.5094 8.42841ZM65.0406 12.1393H75.5094C75.7763 12.1393 76.0074 12.237 76.2028 12.4323C76.3916 12.6211 76.486 12.8522 76.486 13.1257C76.486 13.3926 76.3916 13.6237 76.2028 13.819C76.0074 14.0078 75.7763 14.1022 75.5094 14.1022H65.0406C64.7672 14.1022 64.5328 14.0078 64.3375 13.819C64.1487 13.6237 64.0543 13.3926 64.0543 13.1257C64.0543 12.8522 64.1487 12.6211 64.3375 12.4323C64.5328 12.237 64.7672 12.1393 65.0406 12.1393Z" fill="#FDFDFD"/>
<path d="M87.6854 13.1066C87.6854 13.4603 87.3822 13.7634 87.0286 13.7634H82.3549C81.9759 13.7634 81.6728 14.0666 81.6728 14.4455V15.9866C81.6728 16.3403 81.9759 16.6434 82.3549 16.6434H90.0349C90.3886 16.6434 90.6917 16.9466 90.6917 17.3255V19.1192C90.6917 19.4729 90.3886 19.7761 90.0349 19.7761H79.2222C78.8433 19.7761 78.5401 19.4729 78.5401 19.1192V14.3192C78.5401 13.9403 78.8433 13.6371 79.2222 13.6371H80.8896C81.2686 13.6371 81.5465 13.334 81.5465 12.9803V11.3129C81.5465 10.934 81.8496 10.6308 82.2286 10.6308H86.9022C87.2559 10.6308 87.5591 10.3276 87.5591 9.97396V8.4329C87.5591 8.05396 87.2559 7.7508 86.9022 7.7508H79.2222C78.8433 7.7508 78.5401 7.44764 78.5401 7.09396V5.30027C78.5401 4.92133 78.8433 4.61817 79.2222 4.61817H90.0349C90.3886 4.61817 90.6917 4.92133 90.6917 5.30027V10.1003C90.6917 10.454 90.3886 10.7571 90.0349 10.7571H88.3675C87.9886 10.7571 87.6854 11.0603 87.6854 11.4392V13.1066ZM101.574 7.62448C101.928 7.62448 102.231 7.32133 102.231 6.96764V5.30027C102.231 4.92133 102.534 4.61817 102.913 4.61817H104.707C105.06 4.61817 105.364 4.92133 105.364 5.30027V7.09396C105.364 7.44764 105.06 7.7508 104.707 7.7508H103.039C102.66 7.7508 102.357 8.05396 102.357 8.4329V10.1003C102.357 10.454 102.054 10.7571 101.7 10.7571H100.033C99.6541 10.7571 99.351 11.0603 99.351 11.4392V12.9803C99.351 13.334 99.6541 13.6371 100.033 13.6371H101.7C102.054 13.6371 102.357 13.9403 102.357 14.3192V15.9866C102.357 16.3403 102.66 16.6434 103.039 16.6434H104.707C105.06 16.6434 105.364 16.9466 105.364 17.3255V19.1192C105.364 19.4729 105.06 19.7761 104.707 19.7761H102.913C102.534 19.7761 102.231 19.4729 102.231 19.1192V17.4266C102.231 17.0729 101.928 16.7697 101.574 16.7697H99.9067C99.5278 16.7697 99.2246 16.4666 99.2246 16.1129V14.4455C99.2246 14.0666 98.9215 13.7634 98.5678 13.7634H97.0267C96.6478 13.7634 96.3446 14.0666 96.3446 14.4455V19.1192C96.3446 19.4729 96.0415 19.7761 95.6878 19.7761H93.8941C93.5152 19.7761 93.212 19.4729 93.212 19.1192V5.30027C93.212 4.92133 93.5152 4.61817 93.8941 4.61817H95.6878C96.0415 4.61817 96.3446 4.92133 96.3446 5.30027V9.97396C96.3446 10.3276 96.6478 10.6308 97.0267 10.6308H98.5678C98.9215 10.6308 99.2246 10.3276 99.2246 9.97396V8.30659C99.2246 7.92764 99.5278 7.62448 99.9067 7.62448H101.574Z" fill="url(#paint1_linear_3707_2537)"/>
<defs>
<linearGradient id="paint0_linear_3707_2537" x1="2.34278" y1="4.12608" x2="16.3398" y2="7.06372" gradientUnits="userSpaceOnUse">
<stop stop-color="#82EB7C"/>
<stop offset="0.3749" stop-color="#27B782"/>
<stop offset="0.375" stop-color="#26B682"/>
<stop offset="1" stop-color="#6BD2C9"/>
</linearGradient>
<linearGradient id="paint1_linear_3707_2537" x1="78.6872" y1="9.74359" x2="86.215" y2="26.3228" gradientUnits="userSpaceOnUse">
<stop stop-color="#82EB7C"/>
<stop offset="0.375" stop-color="#26B682"/>
<stop offset="1" stop-color="#6BD2C9"/>
</linearGradient>
</defs>
</svg>
