<svg width="465" height="210" viewBox="0 0 465 210" fill="none" xmlns="http://www.w3.org/2000/svg">
<path fill-rule="evenodd" clip-rule="evenodd" d="M208.5 60L192.5 77L232 120.5L272.5 78L256 60L238.5 60.5L233 66.5L226.5 60H208.5ZM217.5 70L232 86L247.5 70.5L254 77.5L232.5 100L211.5 76.5L217.5 70Z" fill="#6D6D6D"/>
<path d="M192.5 42.5L233 0L268 39L258.5 48.5L233 20.5L211.5 42.5L232.5 66L237.5 60.5L227.5 49L237.5 39L257 61L232 86L192.5 42.5Z" fill="url(#paint0_linear_2_98)"/>
<path d="M9.72168 136.292H67.2998C68.7679 136.292 70.0391 136.829 71.1133 137.903C72.1517 138.942 72.6709 140.213 72.6709 141.717C72.6709 143.221 72.1517 144.492 71.1133 145.53C70.0391 146.569 68.7679 147.088 67.2998 147.088H45.0635V204.075C45.0635 205.579 44.5443 206.868 43.5059 207.942C42.4674 208.981 41.1963 209.5 39.6924 209.5C38.1885 209.5 36.9173 208.981 35.8789 207.942C34.8047 206.868 34.2676 205.579 34.2676 204.075V147.088H9.72168C8.21777 147.088 6.92871 146.569 5.85449 145.53C4.81608 144.492 4.29688 143.221 4.29688 141.717C4.29688 140.213 4.81608 138.942 5.85449 137.903C6.92871 136.829 8.21777 136.292 9.72168 136.292ZM149.692 157.293C149.692 164.132 146.989 169.664 141.582 173.89C146.989 178.759 149.692 184.829 149.692 192.098V204.075C149.692 205.579 149.173 206.868 148.135 207.942C147.061 208.981 145.789 209.5 144.321 209.5C142.817 209.5 141.546 208.981 140.508 207.942C139.434 206.868 138.896 205.579 138.896 204.075V192.098C138.896 188.302 137.554 185.062 134.868 182.376C132.183 179.655 128.924 178.294 125.093 178.294H86.7432C85.2393 178.294 83.9502 177.775 82.876 176.736C81.8376 175.662 81.3184 174.391 81.3184 172.923C81.3184 171.419 81.8376 170.148 82.876 169.109C83.9502 168.035 85.2393 167.498 86.7432 167.498H128.691C131.52 167.498 133.919 166.513 135.889 164.544C137.894 162.539 138.896 160.122 138.896 157.293C138.896 154.5 137.894 152.101 135.889 150.096C133.919 148.09 131.52 147.088 128.691 147.088H86.7432C85.2393 147.088 83.9502 146.569 82.876 145.53C81.8376 144.492 81.3184 143.221 81.3184 141.717C81.3184 140.213 81.8376 138.942 82.876 137.903C83.9502 136.829 85.2393 136.292 86.7432 136.292H128.691C134.492 136.292 139.451 138.351 143.569 142.469C147.651 146.587 149.692 151.528 149.692 157.293ZM173.164 194.676C175.885 197.361 179.144 198.704 182.939 198.704C184.443 198.704 185.715 199.223 186.753 200.262C187.791 201.336 188.311 202.607 188.311 204.075C188.311 205.579 187.791 206.868 186.753 207.942C185.715 208.981 184.443 209.5 182.939 209.5C176.172 209.5 170.371 207.101 165.537 202.303C160.739 197.469 158.34 191.668 158.34 184.9V141.717C158.34 140.213 158.859 138.942 159.897 137.903C160.972 136.829 162.261 136.292 163.765 136.292C165.233 136.292 166.504 136.829 167.578 137.903C168.617 138.942 169.136 140.213 169.136 141.717V184.9C169.136 188.696 170.479 191.954 173.164 194.676ZM217.529 137.903C218.568 136.829 219.839 136.292 221.343 136.292C222.811 136.292 224.082 136.829 225.156 137.903C226.195 138.942 226.714 140.213 226.714 141.717V184.9C226.714 191.668 224.315 197.469 219.517 202.303C214.718 207.101 208.918 209.5 202.114 209.5C200.646 209.5 199.375 208.981 198.301 207.942C197.262 206.868 196.743 205.579 196.743 204.075C196.743 202.607 197.262 201.336 198.301 200.262C199.375 199.223 200.646 198.704 202.114 198.704C205.946 198.704 209.204 197.361 211.89 194.676C214.575 191.954 215.918 188.696 215.918 184.9V141.717C215.918 140.213 216.455 138.942 217.529 137.903ZM240.786 198.704H298.364C299.832 198.704 301.104 199.223 302.178 200.262C303.216 201.336 303.735 202.607 303.735 204.075C303.735 205.579 303.216 206.868 302.178 207.942C301.104 208.981 299.832 209.5 298.364 209.5H240.786C239.282 209.5 237.993 208.981 236.919 207.942C235.881 206.868 235.361 205.579 235.361 204.075C235.361 202.607 235.881 201.336 236.919 200.262C237.993 199.223 239.282 198.704 240.786 198.704ZM298.364 147.088H240.786C239.282 147.088 237.993 146.569 236.919 145.53C235.881 144.492 235.361 143.221 235.361 141.717C235.361 140.213 235.881 138.942 236.919 137.903C237.993 136.829 239.282 136.292 240.786 136.292H298.364C299.832 136.292 301.104 136.829 302.178 137.903C303.216 138.942 303.735 140.213 303.735 141.717C303.735 143.221 303.216 144.492 302.178 145.53C301.104 146.569 299.832 147.088 298.364 147.088ZM240.786 167.498H298.364C299.832 167.498 301.104 168.035 302.178 169.109C303.216 170.148 303.735 171.419 303.735 172.923C303.735 174.391 303.216 175.662 302.178 176.736C301.104 177.775 299.832 178.294 298.364 178.294H240.786C239.282 178.294 237.993 177.775 236.919 176.736C235.881 175.662 235.361 174.391 235.361 172.923C235.361 171.419 235.881 170.148 236.919 169.109C237.993 168.035 239.282 167.498 240.786 167.498Z" fill="#6D6D6D"/>
<path d="M363.598 173.929C363.598 174.828 363.238 175.636 362.52 176.355C361.891 177.073 361.082 177.433 360.094 177.433H335.168C334.18 177.433 333.327 177.792 332.608 178.511C331.889 179.229 331.53 180.082 331.53 181.071V189.289C331.53 190.278 331.889 191.131 332.608 191.849C333.327 192.478 334.18 192.793 335.168 192.793H376.128C377.116 192.793 377.925 193.152 378.553 193.871C379.272 194.589 379.631 195.442 379.631 196.431V205.997C379.631 206.895 379.272 207.704 378.553 208.422C377.925 209.141 377.116 209.5 376.128 209.5H318.461C317.473 209.5 316.619 209.186 315.901 208.557C315.182 207.838 314.823 206.985 314.823 205.997V180.397C314.823 179.409 315.182 178.555 315.901 177.837C316.619 177.118 317.473 176.759 318.461 176.759H327.353C328.341 176.759 329.15 176.445 329.779 175.816C330.497 175.097 330.856 174.244 330.856 173.256V164.363C330.856 163.375 331.216 162.522 331.934 161.803C332.653 161.085 333.506 160.725 334.494 160.725H359.421C360.409 160.725 361.217 160.366 361.846 159.647C362.565 158.929 362.924 158.12 362.924 157.222V149.003C362.924 148.015 362.565 147.162 361.846 146.443C361.217 145.725 360.409 145.365 359.421 145.365H318.461C317.473 145.365 316.619 145.051 315.901 144.422C315.182 143.704 314.823 142.85 314.823 141.862V132.296C314.823 131.308 315.182 130.454 315.901 129.736C316.619 129.017 317.473 128.658 318.461 128.658H376.128C377.116 128.658 377.925 129.017 378.553 129.736C379.272 130.454 379.631 131.308 379.631 132.296V157.896C379.631 158.794 379.272 159.602 378.553 160.321C377.925 161.04 377.116 161.399 376.128 161.399H367.235C366.247 161.399 365.394 161.758 364.675 162.477C363.957 163.195 363.598 164.049 363.598 165.037V173.929ZM437.671 144.692C438.659 144.692 439.467 144.332 440.096 143.614C440.815 142.895 441.174 142.087 441.174 141.188V132.296C441.174 131.308 441.533 130.454 442.252 129.736C442.97 129.017 443.824 128.658 444.812 128.658H454.378C455.366 128.658 456.175 129.017 456.803 129.736C457.522 130.454 457.881 131.308 457.881 132.296V141.862C457.881 142.76 457.522 143.569 456.803 144.287C456.175 145.006 455.366 145.365 454.378 145.365H445.485C444.497 145.365 443.644 145.725 442.925 146.443C442.207 147.162 441.848 148.015 441.848 149.003V157.896C441.848 158.794 441.488 159.602 440.77 160.321C440.141 161.04 439.332 161.399 438.344 161.399H429.452C428.464 161.399 427.61 161.758 426.892 162.477C426.173 163.195 425.814 164.049 425.814 165.037V173.256C425.814 174.244 426.173 175.097 426.892 175.816C427.61 176.445 428.464 176.759 429.452 176.759H438.344C439.332 176.759 440.141 177.118 440.77 177.837C441.488 178.555 441.848 179.409 441.848 180.397V189.289C441.848 190.278 442.207 191.131 442.925 191.849C443.644 192.478 444.497 192.793 445.485 192.793H454.378C455.366 192.793 456.175 193.152 456.803 193.871C457.522 194.589 457.881 195.442 457.881 196.431V205.997C457.881 206.895 457.522 207.704 456.803 208.422C456.175 209.141 455.366 209.5 454.378 209.5H444.812C443.824 209.5 442.97 209.186 442.252 208.557C441.533 207.838 441.174 206.985 441.174 205.997V196.969C441.174 195.981 440.815 195.173 440.096 194.544C439.467 193.826 438.659 193.466 437.671 193.466H428.778C427.79 193.466 426.937 193.152 426.218 192.523C425.499 191.805 425.14 190.951 425.14 189.963V181.071C425.14 180.082 424.781 179.229 424.062 178.511C423.433 177.792 422.625 177.433 421.637 177.433H413.418C412.43 177.433 411.577 177.792 410.858 178.511C410.139 179.229 409.78 180.082 409.78 181.071V205.997C409.78 206.895 409.421 207.704 408.702 208.422C408.073 209.141 407.265 209.5 406.277 209.5H396.711C395.723 209.5 394.869 209.186 394.151 208.557C393.432 207.838 393.073 206.985 393.073 205.997V132.296C393.073 131.308 393.432 130.454 394.151 129.736C394.869 129.017 395.723 128.658 396.711 128.658H406.277C407.265 128.658 408.073 129.017 408.702 129.736C409.421 130.454 409.78 131.308 409.78 132.296V157.222C409.78 158.21 410.139 159.064 410.858 159.782C411.577 160.411 412.43 160.725 413.418 160.725H421.637C422.625 160.725 423.433 160.366 424.062 159.647C424.781 158.929 425.14 158.12 425.14 157.222V148.329C425.14 147.341 425.499 146.488 426.218 145.769C426.937 145.051 427.79 144.692 428.778 144.692H437.671Z" fill="url(#paint1_linear_2_98)"/>
<defs>
<linearGradient id="paint0_linear_2_98" x1="197.596" y1="19.3303" x2="267.873" y2="34.0797" gradientUnits="userSpaceOnUse">
<stop stop-color="#82EB7C"/>
<stop offset="0.3749" stop-color="#27B782"/>
<stop offset="0.375" stop-color="#26B682"/>
<stop offset="1" stop-color="#6BD2C9"/>
</linearGradient>
<linearGradient id="paint1_linear_2_98" x1="310.5" y1="155.325" x2="351.116" y2="244.892" gradientUnits="userSpaceOnUse">
<stop stop-color="#82EB7C"/>
<stop offset="0.375" stop-color="#26B682"/>
<stop offset="1" stop-color="#6BD2C9"/>
</linearGradient>
</defs>
</svg>
